<!DOCTYPE svg PUBLIC "-//W3C//DTD SVG 1.1//EN" "http://www.w3.org/Graphics/SVG/1.1/DTD/svg11.dtd">
<!-- Uploaded to: SVG Repo, www.svgrepo.com, Transformed by: SVG Repo Mixer Tools -->
<svg version="1.1" id="_x35_" xmlns="http://www.w3.org/2000/svg" xmlns:xlink="http://www.w3.org/1999/xlink" viewBox="0 0 512 512" xml:space="preserve" width="228px" height="228px" fill="#ffffff" stroke="#ffffff">
<g id="SVGRepo_bgCarrier" stroke-width="0"/>
<g id="SVGRepo_tracerCarrier" stroke-linecap="round" stroke-linejoin="round"/>
<g id="SVGRepo_iconCarrier"> <g> <g> <ellipse style="fill:#550d4e;" cx="255.854" cy="256" rx="255.854" ry="256"/> <path style="fill:#351b67;" d="M255.854,512C114.55,512,0,397.386,0,256S114.55,0,255.854,0V512z"/> </g> <g> <g> <ellipse style="fill:#F9FBE9;" cx="255.854" cy="76.978" rx="11.339" ry="11.345"/> <ellipse style="fill:#F9FBE9;" cx="255.854" cy="435.022" rx="11.339" ry="11.345"/> </g> <g> <ellipse transform="matrix(0.866 -0.5 0.5 0.866 -28.1952 96.7067)" style="fill:#F9FBE9;" cx="166.343" cy="100.961" rx="11.338" ry="11.345"/> <ellipse transform="matrix(0.866 -0.5 0.5 0.866 -159.2513 227.7576)" style="fill:#F9FBE9;" cx="345.366" cy="411.039" rx="11.339" ry="11.345"/> </g> <g> <ellipse transform="matrix(0.5 -0.866 0.866 0.5 -93.7757 170.5564)" style="fill:#F9FBE9;" cx="100.815" cy="166.489" rx="11.339" ry="11.345"/> <ellipse transform="matrix(0.5 -0.866 0.866 0.5 -93.778 528.5914)" style="fill:#F9FBE9;" cx="410.892" cy="345.511" rx="11.339" ry="11.346"/> </g> <g> <ellipse style="fill:#F9FBE9;" cx="76.831" cy="256" rx="11.345" ry="11.339"/> <ellipse style="fill:#F9FBE9;" cx="434.877" cy="256" rx="11.345" ry="11.339"/> </g> <g> <ellipse transform="matrix(-0.5 -0.866 0.866 -0.5 -148.0026 605.5715)" style="fill:#F9FBE9;" cx="100.815" cy="345.511" rx="11.339" ry="11.345"/> <ellipse transform="matrix(-0.5 -0.866 0.866 -0.5 472.1614 605.5755)" style="fill:#F9FBE9;" cx="410.892" cy="166.489" rx="11.339" ry="11.346"/> </g> <g> <ellipse transform="matrix(-0.866 -0.5 0.5 -0.866 104.8593 850.1769)" style="fill:#F9FBE9;" cx="166.343" cy="411.039" rx="11.338" ry="11.345"/> <ellipse transform="matrix(-0.866 -0.5 0.5 -0.866 593.9772 361.0822)" style="fill:#F9FBE9;" cx="345.366" cy="100.961" rx="11.339" ry="11.345"/> </g> </g> <circle style="fill:#FFFFFF;" cx="255.854" cy="256" r="21.321"/> <g> <line style="fill:#FFFFFF;" x1="255.854" y1="113.359" x2="255.854" y2="247.985"/> <rect x="244.648" y="102.152" style="fill:#FFFFFF;" width="22.411" height="157.038"/> </g> <g> <line style="fill:#FFFFFF;" x1="360.937" y1="361.082" x2="253.95" y2="254.096"/> <rect x="223.39" y="299.184" transform="matrix(0.7071 0.7071 -0.7071 0.7071 307.5346 -127.3054)" style="fill:#FFFFFF;" width="168.109" height="16.807"/> </g> <line style="fill:#FFFFFF;stroke:#F8F9E0;stroke-width:0.00512;" x1="255.854" y1="255.511" x2="24.048" y2="255.511"/> </g> </g>
</svg>